<svg xmlns="http://www.w3.org/2000/svg" width="1363.974" height="460.565" viewBox="0 0 1363.974 460.565">
  <g id="bg-footer" transform="translate(-2.026 -3572.435)">
    <rect id="Rectangle_24" data-name="Rectangle 24" width="1363" height="320" transform="translate(3 3713)"/>
    <path id="Path_1521" data-name="Path 1521" d="M1309.085,4695.31s-14.2-9.2-14.2,0-55.386,45.985-122.133,37.5c-1.42,2.83-66.747,91.972-144.855,28.3-1.42-1.415-68.167,42.449-124.973,0,1.42,0-115.032,49.523-173.258-19.809,1.42,0-160.477,73.577-259.887-8.49,0,0-63.907,16.979-132.074-18.394,1.42,0-39.764,32.543-73.848,18.394,1.42,1.415-45.445,72.162-107.931,33.959,1.42,0-137.754,100.461-210.182,33.958-1.42,4.245,0,33.958,0,33.958l1363.343,2.83Z" transform="translate(56.915 -1118.788)"/>
  </g>
</svg>