<svg xmlns="http://www.w3.org/2000/svg" width="33.897" height="33.894" viewBox="0 0 33.897 33.894">
  <g id="diamond" transform="translate(0 -0.027)">
    <path id="Path_1782" data-name="Path 1782" d="M10,221.054l16.289,18.6,16.285-18.6Z" transform="translate(-9.337 -206.394)" fill="#fff"/>
    <g id="Group_298" data-name="Group 298" transform="translate(0.662 6.383)">
      <path id="Path_1783" data-name="Path 1783" d="M10,221.054l16.289,18.6,16.285-18.6Z" transform="translate(-9.999 -212.777)" fill="#f4b11a"/>
      <path id="Path_1784" data-name="Path 1784" d="M15.464,96.03l-5.453,8.277H42.583L37.155,96.03Z" transform="translate(-10.01 -96.03)" fill="#fbed1b"/>
    </g>
    <path id="Path_1785" data-name="Path 1785" d="M174.039,104.307l5.428-8.277,5.428,8.277Z" transform="translate(-162.517 -89.647)" fill="#fff"/>
    <g id="Group_299" data-name="Group 299" transform="translate(0.688 6.383)">
      <path id="Path_1786" data-name="Path 1786" d="M338.02,104.307l5.428-8.277,5.428,8.277Z" transform="translate(-316.329 -96.03)" fill="#fff"/>
      <path id="Path_1787" data-name="Path 1787" d="M10.388,104.307l5.428-8.277,5.428,8.277Z" transform="translate(-10.388 -96.03)" fill="#fff"/>
      <path id="Path_1788" data-name="Path 1788" d="M184.9,221.054H174.039l5.428,18.532Z" transform="translate(-163.204 -212.777)" fill="#fff"/>
    </g>
    <g id="Group_300" data-name="Group 300" transform="translate(2.889 0.689)">
      <path id="Path_1789" data-name="Path 1789" d="M47.394,287.757h0A3.759,3.759,0,0,0,43.635,284h0a3.759,3.759,0,0,0,3.759-3.759h0A3.759,3.759,0,0,0,51.153,284h0A3.759,3.759,0,0,0,47.394,287.757Z" transform="translate(-43.635 -262.349)" fill="#fbed1b"/>
      <path id="Path_1790" data-name="Path 1790" d="M424.657,15.321h0a2.648,2.648,0,0,0-2.648-2.648h0a2.648,2.648,0,0,0,2.648-2.648h0a2.648,2.648,0,0,0,2.648,2.648h0A2.648,2.648,0,0,0,424.657,15.321Z" transform="translate(-396.959 -10.025)" fill="#fbed1b"/>
    </g>
    <path id="Path_1791" data-name="Path 1791" d="M28.361,86.329a.662.662,0,0,0-.554-.3H6.116a.662.662,0,0,0-.553.3L.126,94.58a.662.662,0,0,0,.038.825L2.92,98.552a.662.662,0,1,0,1-.872L2.122,95.631h8.9L15.5,110.908l-5.056-5.773a.662.662,0,1,0-1,.872l7,8a.662.662,0,0,0,1,0l7.457-8.516a.662.662,0,1,0-1-.872L18.4,110.907l4.474-15.276h8.9l-4.117,4.7a.662.662,0,1,0,1,.872l5.078-5.8a.662.662,0,0,0,.056-.8Zm3.649,7.978H23.6l4.2-6.408Zm-20.476-.562L7.342,87.354h8.383ZM16.951,87.9l4.2,6.408h-8.4Zm1.226-.545h8.4l-4.2,6.408ZM6.115,87.9l4.2,6.41H1.892Zm10.836,23.249L12.406,95.631H21.5Z" transform="translate(0 -80.309)"/>
    <path id="Path_1792" data-name="Path 1792" d="M42.478,274.661a.662.662,0,0,0-.662-.662,3.1,3.1,0,0,1-3.1-3.1.662.662,0,0,0-1.324,0,3.1,3.1,0,0,1-3.1,3.1.662.662,0,0,0,0,1.324,3.1,3.1,0,0,1,3.1,3.1.662.662,0,0,0,1.324,0,3.1,3.1,0,0,1,3.1-3.1A.662.662,0,0,0,42.478,274.661ZM38.057,276.1a4.456,4.456,0,0,0-1.434-1.434,4.455,4.455,0,0,0,1.434-1.434,4.456,4.456,0,0,0,1.434,1.434A4.456,4.456,0,0,0,38.057,276.1Z" transform="translate(-31.409 -252.323)"/>
    <path id="Path_1793" data-name="Path 1793" d="M412.672,4a1.988,1.988,0,0,1,1.986,1.986.662.662,0,0,0,1.324,0A1.988,1.988,0,0,1,417.968,4a.662.662,0,0,0,0-1.324A1.988,1.988,0,0,1,415.982.689a.662.662,0,0,0-1.324,0,1.988,1.988,0,0,1-1.986,1.986.662.662,0,0,0,0,1.324Zm2.648-1.326a3.338,3.338,0,0,0,.664.664A3.337,3.337,0,0,0,415.32,4a3.339,3.339,0,0,0-.664-.664A3.341,3.341,0,0,0,415.32,2.673Z" transform="translate(-384.733 0)"/>
    <path id="Path_1794" data-name="Path 1794" d="M386.378,332.442a.663.663,0,1,0,.468.194A.665.665,0,0,0,386.378,332.442Z" transform="translate(-360.179 -310.407)"/>
  </g>
</svg>
