<svg id="facebook" xmlns="http://www.w3.org/2000/svg" width="28.299" height="28.299" viewBox="0 0 28.299 28.299">
  <path id="Path_1548" data-name="Path 1548" d="M291.21,508.668q-.177.029-.355.053Q291.033,508.7,291.21,508.668Zm0,0" transform="translate(-274.779 -480.553)" fill="#f5f5f5"/>
  <path id="Path_1549" data-name="Path 1549" d="M299.508,507.793l-.169.03Zm0,0" transform="translate(-282.795 -479.727)" fill="#f5f5f5"/>
  <path id="Path_1550" data-name="Path 1550" d="M278.026,510.34q-.207.023-.416.041Q277.819,510.364,278.026,510.34Zm0,0" transform="translate(-262.266 -482.133)" fill="#f5f5f5"/>
  <path id="Path_1551" data-name="Path 1551" d="M286.645,509.738l-.2.025Zm0,0" transform="translate(-270.613 -481.564)" fill="#f5f5f5"/>
  <path id="Path_1552" data-name="Path 1552" d="M306.813,506.41l-.149.031Zm0,0" transform="translate(-289.714 -478.42)" fill="#f5f5f5"/>
  <path id="Path_1553" data-name="Path 1553" d="M324.6,502.113l-.12.033Zm0,0" transform="translate(-306.55 -474.361)" fill="#f5f5f5"/>
  <path id="Path_1554" data-name="Path 1554" d="M319.19,503.543l-.131.034Zm0,0" transform="translate(-301.424 -475.712)" fill="#f5f5f5"/>
  <path id="Path_1555" data-name="Path 1555" d="M312.206,505.254l-.139.031Zm0,0" transform="translate(-294.818 -477.328)" fill="#f5f5f5"/>
  <path id="Path_1556" data-name="Path 1556" d="M273.7,511.09l-.224.017Zm0,0" transform="translate(-258.365 -482.841)" fill="#f5f5f5"/>
  <path id="Path_1557" data-name="Path 1557" d="M28.3,14.149A14.149,14.149,0,1,0,14.149,28.3c.083,0,.166,0,.249,0V17.281h-3.04V13.738H14.4V11.131c0-3.024,1.846-4.669,4.543-4.669a25.024,25.024,0,0,1,2.725.139v3.16h-1.86c-1.467,0-1.751.7-1.751,1.721v2.256h3.508l-.457,3.543H18.055V27.752A14.157,14.157,0,0,0,28.3,14.149Zm0,0" fill="#f5f5f5"/>
  <path id="Path_1558" data-name="Path 1558" d="M265.334,511.43q-.221.014-.443.022Q265.113,511.445,265.334,511.43Zm0,0" transform="translate(-250.25 -483.163)" fill="#f5f5f5"/>
  <path id="Path_1559" data-name="Path 1559" d="M260.739,511.836l-.235.006Zm0,0" transform="translate(-246.106 -483.546)" fill="#f5f5f5"/>
</svg>
