<svg id="instagram" xmlns="http://www.w3.org/2000/svg" width="28.299" height="28.299" viewBox="0 0 28.299 28.299">
  <path id="Path_1545" data-name="Path 1545" d="M212.417,209.708A2.708,2.708,0,1,1,209.708,207,2.708,2.708,0,0,1,212.417,209.708Zm0,0" transform="translate(-195.559 -195.559)" fill="#f5f5f5"/>
  <path id="Path_1546" data-name="Path 1546" d="M148.479,137.358a2.691,2.691,0,0,0-1.542-1.542,4.5,4.5,0,0,0-1.509-.28c-.857-.039-1.114-.048-3.283-.048s-2.427.008-3.283.047a4.5,4.5,0,0,0-1.509.28,2.692,2.692,0,0,0-1.542,1.542,4.5,4.5,0,0,0-.28,1.509c-.039.857-.048,1.114-.048,3.283s.008,2.426.048,3.283a4.5,4.5,0,0,0,.28,1.509,2.691,2.691,0,0,0,1.542,1.542,4.49,4.49,0,0,0,1.509.28c.857.039,1.113.047,3.283.047s2.427-.008,3.283-.047a4.49,4.49,0,0,0,1.509-.28,2.691,2.691,0,0,0,1.542-1.542,4.5,4.5,0,0,0,.28-1.509c.039-.857.047-1.114.047-3.283s-.008-2.427-.047-3.283A4.49,4.49,0,0,0,148.479,137.358Zm-6.334,8.964a4.172,4.172,0,1,1,4.172-4.172A4.172,4.172,0,0,1,142.146,146.322Zm4.337-7.534a.975.975,0,1,1,.975-.975A.975.975,0,0,1,146.483,138.787Zm0,0" transform="translate(-127.996 -128)" fill="#f5f5f5"/>
  <path id="Path_1547" data-name="Path 1547" d="M14.149,0A14.149,14.149,0,1,0,28.3,14.149,14.151,14.151,0,0,0,14.149,0Zm8.076,17.5a5.961,5.961,0,0,1-.378,1.972,4.154,4.154,0,0,1-2.376,2.376,5.965,5.965,0,0,1-1.972.378c-.866.04-1.143.049-3.35.049s-2.483-.01-3.35-.049a5.965,5.965,0,0,1-1.972-.378,4.154,4.154,0,0,1-2.376-2.376A5.96,5.96,0,0,1,6.074,17.5c-.04-.867-.049-1.143-.049-3.35s.009-2.483.049-3.35a5.962,5.962,0,0,1,.377-1.972A4.157,4.157,0,0,1,8.827,6.451,5.967,5.967,0,0,1,10.8,6.074c.866-.04,1.143-.049,3.35-.049s2.483.009,3.35.049a5.968,5.968,0,0,1,1.972.377,4.156,4.156,0,0,1,2.376,2.376,5.96,5.96,0,0,1,.378,1.972c.04.866.049,1.143.049,3.35S22.265,16.633,22.225,17.5Zm0,0" fill="#f5f5f5"/>
</svg>
