<svg xmlns="http://www.w3.org/2000/svg" viewBox="0 0 363.29 375.52"><defs><style>.cls-1,.cls-3{fill:#FBED1B;}.cls-2{fill:#232323;}.cls-3{font-size:22.13px;font-family:HelveticaRoundedLT-BoldCond, HelveticaRoundedLT BoldCond;font-weight:700;}.cls-4{fill-rule:evenodd;}</style></defs><title>logo_wowmax</title><g id="Layer_2" data-name="Layer 2"><g id="Layer_1-2" data-name="Layer 1"><rect class="cls-1" x="5.4" y="5.4" width="352.5" height="352.5" rx="17.09" ry="17.09"/><path class="cls-2" d="M363.29,22.48V340.81a22.51,22.51,0,0,1-22.48,22.48H286v-5.4h54.85a17.1,17.1,0,0,0,17.09-17.09V22.48A17.1,17.1,0,0,0,340.81,5.4H22.48A17.1,17.1,0,0,0,5.4,22.48V340.81A17.1,17.1,0,0,0,22.48,357.9H75.54v5.4H22.48A22.51,22.51,0,0,1,0,340.81V22.48A22.51,22.51,0,0,1,22.48,0H340.81A22.51,22.51,0,0,1,363.29,22.48Z"/><rect class="cls-2" x="74.65" y="348.52" width="214" height="27" rx="13.26" ry="13.26"/><text class="cls-3" transform="translate(107.64 367.79)">Get the happiness</text><path d="M88.31,171.81a92.07,92.07,0,0,1-8.79,18.59h-2.2c-5.41,0-9.8-8.7-12.17-17.24-1.86,5.92-5.15,13.52-7.77,17.24H55.52c-3.29,0-6.08-3.13-7.43-5.41-5.41-9.38-8.87-20.36-10.65-33.55h6.17A6.82,6.82,0,0,1,50,156.85a74.66,74.66,0,0,0,4.56,16.65c2.62-6.42,4.31-13.6,5.83-20.7h3.89a7.43,7.43,0,0,1,7.52,6,118.07,118.07,0,0,0,4.56,14.79,105.45,105.45,0,0,0,5.83-22.31H87c3.29,0,5.58,1.44,5.58,5.07C92.53,157.78,91.09,164.21,88.31,171.81Z"/><path d="M115.77,150.6c11.66,0,18.25,9.38,18.25,19.52,0,11.49-6.59,20.62-19,20.62-11.66,0-18.25-9.13-18.25-19.35C96.76,160,103.35,150.6,115.77,150.6ZM115,161.08c-4.39,0-6.59,3.8-6.59,9,0,6.51,2.2,10.23,7.35,10.23,4.39,0,6.59-3.72,6.59-9C122.36,164.88,120.08,161.08,115,161.08Z"/><path d="M188.87,171.81a92.07,92.07,0,0,1-8.79,18.59h-2.2c-5.41,0-9.8-8.7-12.17-17.24-1.86,5.92-5.15,13.52-7.77,17.24h-1.86c-3.29,0-6.08-3.13-7.43-5.41-5.41-9.38-8.87-20.36-10.65-33.55h6.17a6.82,6.82,0,0,1,6.42,5.41,74.66,74.66,0,0,0,4.56,16.65c2.62-6.42,4.31-13.6,5.83-20.7h3.89a7.43,7.43,0,0,1,7.52,6A118.07,118.07,0,0,0,177,173.58a105.45,105.45,0,0,0,5.83-22.31h4.73c3.29,0,5.58,1.44,5.58,5.07C193.09,157.78,191.65,164.21,188.87,171.81Z"/><path d="M251.31,190c-5.66,0-7.94-2.7-7.94-7.69V168.34c0-5.15-2.2-7.35-5.41-7.35-3,0-4.9,2.11-4.9,6.25V190h-3.63c-4.65,0-7.69-2.7-7.69-7.69V168.34c0-5.15-2.37-7.35-5.49-7.35-2.79,0-5,2.37-5,6.51V190h-3.55c-4.31,0-7.77-2.79-7.77-7.69v-14c0-10.56,5.58-17.66,17.32-17.66a14.38,14.38,0,0,1,10.9,4.9,13.78,13.78,0,0,1,10.48-4.9c8.87,0,16.14,5.41,16.14,16.48V190Z"/><path d="M272.53,151.28a6.42,6.42,0,0,1,0-12.84,6.42,6.42,0,1,1,0,12.84Zm6.42,39c-7.77,0-12-4.31-12-12.42V152.21h3.8c4.65,0,7.52,2.53,7.52,7.94V177c0,2.79,1.27,3.63,4.31,3.63h2.87v3.13C285.46,188.45,283.6,190.31,279,190.31Z"/><path d="M318.5,190.57c-4.39,0-7.27-2.37-10.65-7.52l-3-4.65c-3.89,4.56-5.07,7.52-5.58,11.74h-5.15a4.72,4.72,0,0,1-4.9-4.48c0-4.73,2.53-8.28,7.35-13.35l2.28-2.45c-1.1-1.61-2.11-3.13-3.29-4.73-4.06-5.75-6.51-9.38-6.76-13.69h6.59c2.2,0,4.65,1.27,9,7.35l2.87,4.06c4.65-5.49,5.58-7.35,6.17-11.32h4.39c3.55,0,4.9,2.37,4.9,5s-3.21,7.86-9.46,14.87c1.1,1.69,2.37,3.29,3.46,5v-.08c3.72,5.41,5.07,6.76,8.87,8.53C325.59,187.95,323.23,190.57,318.5,190.57Z"/><path class="cls-4" d="M246.68,211.06a5.34,5.34,0,0,0-6.09-6.08,1.93,1.93,0,0,1-.58-3.82,9.2,9.2,0,0,1,10.48,10.48,1.93,1.93,0,1,1-3.81-.58m-139.27.58a9.2,9.2,0,0,1,10.48-10.48,1.93,1.93,0,0,1-.58,3.82,5.34,5.34,0,0,0-6.08,6.08,1.93,1.93,0,0,1-3.82.58Zm11.88-2.57c25.11,23.15,95.19,23,120.31,0a2.17,2.17,0,0,1,2.67-.58,1.93,1.93,0,0,1,.58,2.67c-6.4,10-15.82,17.64-26.4,22.83a86,86,0,0,1-74,0c-10.57-5.19-20-12.86-26.4-22.83a1.93,1.93,0,0,1,3.25-2.09Z"/></g></g></svg>