<svg xmlns="http://www.w3.org/2000/svg" width="39.929" height="36.81" viewBox="0 0 39.929 36.81"><g transform="translate(-698.212 -654.44)"><g transform="translate(698.212 654.44)"><g transform="translate(0 0)"><path d="M310.061,127.518a.78.78,0,1,0,1.1-1.1l-.011-.011a.78.78,0,1,0-1.1,1.1Z" transform="translate(-285.66 -117.896)"/><path d="M36.982,37,39.7,34.283a.78.78,0,0,0-.552-1.331H33.514A17,17,0,1,0,4.98,49.023,17.123,17.123,0,0,0,8.1,51.495L5.755,55.646a.78.78,0,0,0,.679,1.164H10.45a.78.78,0,0,0,.679-.4l1.661-2.935a17.207,17.207,0,0,0,8.422,0l1.661,2.935a.78.78,0,0,0,.679.4h4.016a.78.78,0,0,0,.679-1.164L25.9,51.495a17.126,17.126,0,0,0,3.125-2.472,16.943,16.943,0,0,0,4.492-7.972h5.635a.78.78,0,0,0,.552-1.331Zm-1.426-.78H30.114l1.71-1.71h5.443ZM10,55.25H7.771l1.7-3a16.766,16.766,0,0,0,1.793.762Zm16.235,0H24.007l-1.266-2.236a16.766,16.766,0,0,0,1.793-.762Zm1.689-7.33A15.511,15.511,0,0,1,24.5,50.506l-.046.023-.027.017a15.239,15.239,0,0,1-2.99,1.252.772.772,0,0,0-.121.035,15.593,15.593,0,0,1-8.63,0,.774.774,0,0,0-.121-.035,15.238,15.238,0,0,1-2.99-1.252l-.027-.017L9.5,50.506A15.509,15.509,0,0,1,6.082,47.92,15.441,15.441,0,1,1,31.9,32.951h-.4a.78.78,0,0,0-.551.228l-2.07,2.07A12.015,12.015,0,0,0,27.52,31.2a.78.78,0,1,0-1.365.754,10.356,10.356,0,0,1,1.26,4.268H23.976a7.021,7.021,0,1,0,0,1.56h3.435a10.44,10.44,0,1,1-5.362-9.933.78.78,0,0,0,.754-1.365A12.1,12.1,0,0,0,15.4,25.1,12.01,12.01,0,1,0,28.882,38.755l2.067,2.067a.78.78,0,0,0,.551.228h.4A15.391,15.391,0,0,1,27.92,47.92ZM19.548,35.531a.78.78,0,0,0-1.065-.285l-1.872,1.081a.78.78,0,0,0,0,1.351l1.872,1.081a.779.779,0,0,0,1.109-.976H22.4a5.417,5.417,0,0,1-1.543,3.08h0a5.458,5.458,0,1,1,1.543-4.64H19.591A.778.778,0,0,0,19.548,35.531Zm12.276,3.96-1.71-1.71h5.443l1.71,1.71Z" transform="translate(0 -20)"/></g></g><path d="M2977.857,2645l2,1.9h5.134l-1.616-1.9Z" transform="translate(-2249.793 -1972.915)" fill="#FBED1B" stroke="#FBED1B" stroke-width="1"/><path d="M2968.969,2671.75l1.83,3.161h-2.329l-1.22-2.5Z" transform="translate(-2246.245 -1985.19)" fill="#FBED1B" stroke="#FBED1B" stroke-width="1"/><path d="M2969.08,2671.75l-1.83,3.161h2.329l1.22-2.5Z" transform="translate(-2261.551 -1985.19)" fill="#FBED1B" stroke="#FBED1B" stroke-width="1"/></g></svg>