<svg id="yoghurt" xmlns="http://www.w3.org/2000/svg" width="78.993" height="78.993" viewBox="0 0 78.993 78.993">
  <path id="Path_1740" data-name="Path 1740" d="M284.948,320H249.274L248,327.644h36.948A2.551,2.551,0,0,0,287.5,325.1v-2.548A2.551,2.551,0,0,0,284.948,320Zm0,0" transform="translate(-208.503 -269.037)" fill="#FBED1B"/>
  <path id="Path_1741" data-name="Path 1741" d="M87.213,199.852,85.4,214.341a3.826,3.826,0,0,1-3.791,3.348H52.169a6.356,6.356,0,0,0,1.241-3.228l3.042-32.447H70.329a36.755,36.755,0,0,0,11.831-1.947,14.011,14.011,0,0,1-1.424,4.495H65.723v2.548H84.834a2.548,2.548,0,0,1,0,5.1h4.388a5.04,5.04,0,0,0,.709-2.548,5.1,5.1,0,0,0-5.1-5.1H83.557a16.581,16.581,0,0,0,1.278-6.37v-1.882l-1.748.7c-.661.265-1.331.5-2,.723a11.426,11.426,0,0,0,3.752-8.458V168H81.012a11.467,11.467,0,0,0-9.98,5.84,5.072,5.072,0,0,0-8.423,5.626H56.69l.108-1.156-2.537-.238-3.389,36.151a3.806,3.806,0,0,1-3.806,3.466H25.772a3.805,3.805,0,0,1-3.806-3.466l-3.389-36.151-2.537.238,3.389,36.151a6.34,6.34,0,0,0,6.342,5.776H81.608a6.379,6.379,0,0,0,6.321-5.58l1.852-14.8Zm-6.2-29.3H82.2a8.933,8.933,0,0,1-8.828,7.645H72.184A8.933,8.933,0,0,1,81.012,170.548ZM67,174.371a2.548,2.548,0,1,1-2.548,2.548A2.551,2.551,0,0,1,67,174.371Zm0,0" transform="translate(-13.486 -141.245)"/>
  <path id="Path_1742" data-name="Path 1742" d="M70.015,264A14.015,14.015,0,1,0,84.03,278.015,14.015,14.015,0,0,0,70.015,264Zm5.944,13.739-2.391,5.579a3.865,3.865,0,0,1-7.1,0l-2.391-5.579a5.287,5.287,0,0,1,4.858-7.368H71.1a5.287,5.287,0,0,1,4.859,7.368Zm0,0" transform="translate(-47.081 -221.955)" fill="#FBED1B"/>
  <path id="Path_1743" data-name="Path 1743" d="M104.73,296h-2.17a6.557,6.557,0,0,0-6.029,9.143l2.39,5.578a5.138,5.138,0,0,0,9.446,0l2.391-5.58A6.56,6.56,0,0,0,104.73,296Zm-2.171,2.548h2.17a4.017,4.017,0,0,1,4.012,4.011,3.9,3.9,0,0,1-.051.506l-2.5-2.5-2.548,2.548-2.548-2.548-2.5,2.5a3.921,3.921,0,0,1-.051-.507,4.017,4.017,0,0,1,4.011-4.011Zm3.466,11.171a2.59,2.59,0,0,1-4.762,0l-1.713-4,1.547-1.548,2.548,2.548,2.548-2.548,1.547,1.547Zm0,0" transform="translate(-80.711 -248.859)"/>
  <path id="Path_1744" data-name="Path 1744" d="M49.32,17.847,51.869,0H44.2L42.074,14.876A13.524,13.524,0,0,0,38.779,9.51L36.248,6.978l-.882,1.176a16.726,16.726,0,0,1-9.292,6.171l-.762.19A5.549,5.549,0,0,0,22,22.934h-.9a5.1,5.1,0,1,0,0,10.193V30.578a2.548,2.548,0,1,1,0-5.1H41.482V22.934H26.663a3.019,3.019,0,0,1-.733-5.947l.762-.19a19.3,19.3,0,0,0,9.791-5.978l.494.494a10.94,10.94,0,0,1,3.151,6.526H32.563v2.548H49.126a5.1,5.1,0,1,1,0,10.193v2.548a7.641,7.641,0,0,0,.193-15.28Zm-.388-15.3L46.747,17.837H44.225L46.409,2.548Zm0,0" transform="translate(-13.452)"/>
  <path id="Path_1745" data-name="Path 1745" d="M192,144h2.548v2.548H192Zm0,0" transform="translate(-161.422 -121.066)"/>
  <path id="Path_1746" data-name="Path 1746" d="M43.319,199.645H2.548A2.551,2.551,0,0,1,0,197.1v-2.548A2.551,2.551,0,0,1,2.548,192H43.319a2.551,2.551,0,0,1,2.548,2.548V197.1A2.551,2.551,0,0,1,43.319,199.645Zm0,0" transform="translate(0 -161.422)" fill="#FBED1B"/>
  <path id="Path_1747" data-name="Path 1747" d="M296,272h2.548v2.548H296Zm0,0" transform="translate(-248.859 -228.681)"/>
</svg>
