<svg xmlns="http://www.w3.org/2000/svg" width="67.203" height="67.201" viewBox="0 0 67.203 67.201"><g transform="translate(0 0)"><g transform="translate(32.228 7.088)"><path d="M247.774,54.39a1.312,1.312,0,1,0,.385.928A1.323,1.323,0,0,0,247.774,54.39Z" transform="translate(-245.533 -54.005)"/></g><g transform="translate(0 0)"><g transform="translate(0 0)"><path d="M67.2,33.8V1.557A1.313,1.313,0,0,0,65.155.469,25.08,25.08,0,0,0,57.009,9.5,33.613,33.613,0,0,0,16.8,4.5V1.319a1.313,1.313,0,0,0-2.625,0V6.865c0,.01,0,.02,0,.03V12.6a5.781,5.781,0,0,1-4.46,5.62V1.335a1.313,1.313,0,0,0-2.625,0v16.89a5.781,5.781,0,0,1-4.46-5.62V1.319A1.313,1.313,0,0,0,0,1.319V12.6a8.386,8.386,0,0,0,3.228,6.611A33.653,33.653,0,0,0,3.938,49.4V62.745a4.463,4.463,0,1,0,8.925,0v-2.7a33.62,33.62,0,0,0,36.126,3.443,33.886,33.886,0,0,0,9.289-7.079v6.339a4.463,4.463,0,1,0,8.925,0ZM9.713,20.9c.23-.036.456-.083.679-.137q-.359.645-.679,1.306ZM3.938,36.773v5.761a31.1,31.1,0,0,1-1.312-8.928A30.623,30.623,0,0,1,5.53,20.5a8.333,8.333,0,0,0,1.557.4V32.508A4.47,4.47,0,0,0,3.938,36.773Zm6.3,25.971a1.838,1.838,0,1,1-3.675,0V36.773a1.838,1.838,0,1,1,3.675,0Zm-.5-30.23A24.023,24.023,0,0,1,26.883,10.67a1.313,1.313,0,0,0-.737-2.52,26.6,26.6,0,0,0-9.366,4.964c.01-.169.017-.339.017-.51V7.581a30.983,30.983,0,0,1,39.041,4.462A25.048,25.048,0,0,0,54.4,17.271a26.424,26.424,0,0,0-13.94-9.213,1.313,1.313,0,1,0-.678,2.536A23.853,23.853,0,0,1,54.076,21.426V34.919a1.313,1.313,0,0,0,1.313,1.313h1.889a23.827,23.827,0,0,1-44.415,9.106V36.773A4.471,4.471,0,0,0,9.734,32.514ZM58.278,52.326a30.967,30.967,0,0,1-45.415,4.285V50.02A26.712,26.712,0,0,0,14.9,52.308a26.453,26.453,0,0,0,43.379-9.179ZM56.7,33.607V21.287A22.439,22.439,0,0,1,64.576,4.2V33.607H56.7ZM62.74,64.582A1.84,1.84,0,0,1,60.9,62.745V36.232h3.673l0,26.513A1.84,1.84,0,0,1,62.74,64.582Z" transform="translate(0 -0.006)"/></g></g><g transform="translate(32.259 51.057)"><path d="M247.111,389h-.022a1.313,1.313,0,1,0,.019,2.626h.013a1.313,1.313,0,1,0-.011-2.626Z" transform="translate(-245.769 -388.997)"/></g><g transform="translate(38.047 37.718)"><path d="M303.772,287.425a1.312,1.312,0,0,0-1.636.877,17.452,17.452,0,0,1-11.359,11.569,1.312,1.312,0,1,0,.8,2.5,20.077,20.077,0,0,0,13.067-13.309A1.312,1.312,0,0,0,303.772,287.425Z" transform="translate(-289.867 -287.369)"/></g></g><path d="M0,0H5A0,0,0,0,1,5,0V26.5A2.5,2.5,0,0,1,2.5,29h0A2.5,2.5,0,0,1,0,26.5V0A0,0,0,0,1,0,0Z" transform="translate(60.115 35.986)" fill="#FBED1B"/><rect width="4" height="30" rx="2" transform="translate(6.115 34.986)" fill="#FBED1B"/></svg>