<svg xmlns="http://www.w3.org/2000/svg" width="67.21" height="67.21" viewBox="0 0 67.21 67.21"><g transform="translate(0 0)"><g transform="translate(0 23.016)"><path d="M65.9,179.424H55.133v-2.779a1.313,1.313,0,0,0-1.313-1.313H25.466a1.313,1.313,0,1,0,0,2.625H52.508v10.064A25.011,25.011,0,0,1,40.166,209.55h-25.2A25.01,25.01,0,0,1,2.625,188.022V177.959h8.8a1.313,1.313,0,0,0,0-2.625H1.313A1.313,1.313,0,0,0,0,176.646v11.377a27.521,27.521,0,0,0,10.352,21.528H1.313A1.313,1.313,0,0,0,0,210.863a8.673,8.673,0,0,0,8.664,8.664H49.62a8.673,8.673,0,0,0,8.664-8.664,1.313,1.313,0,0,0-1.313-1.313H44.781a27.725,27.725,0,0,0,6.078-6.782h3.705A12.66,12.66,0,0,0,67.21,190.123v-9.386A1.313,1.313,0,0,0,65.9,179.424ZM55.514,212.176A6.049,6.049,0,0,1,49.62,216.9H8.664a6.049,6.049,0,0,1-5.895-4.726H55.514Zm-.381-24.154V187.3h4.2v2.822a4.775,4.775,0,0,1-4.769,4.769h-.3A27.633,27.633,0,0,0,55.133,188.022Zm9.451,2.1a10.032,10.032,0,0,1-10.02,10.02H52.33a27.408,27.408,0,0,0,1.121-2.625h1.114a7.4,7.4,0,0,0,7.395-7.395v-4.135a1.313,1.313,0,0,0-1.313-1.313H55.133V182.05h9.451Z" transform="translate(0 -175.333)"/></g><g transform="translate(24.755 0)"><g transform="translate(0 0)"><path d="M192.65,7.265l-.683-.858a3.422,3.422,0,0,1,0-4.278A1.313,1.313,0,0,0,189.907.5a6.035,6.035,0,0,0,.006,7.546l.683.858a4.472,4.472,0,0,1,0,5.591l-.7.882a1.313,1.313,0,1,0,2.056,1.632l.7-.882A7.085,7.085,0,0,0,192.65,7.265Z" transform="translate(-188.585 0)"/></g></g><g transform="translate(32.031 2.951)"><path d="M248.079,29.749l-.683-.857a3.422,3.422,0,0,1,0-4.279,1.313,1.313,0,0,0-2.056-1.632,6.036,6.036,0,0,0,.006,7.546l.683.858a4.472,4.472,0,0,1,0,5.591l-.7.882a1.313,1.313,0,1,0,2.056,1.632l.7-.882A7.086,7.086,0,0,0,248.079,29.749Z" transform="translate(-244.014 -22.484)"/></g><g transform="translate(17.479 2.952)"><path d="M137.221,29.75l-.683-.857a3.422,3.422,0,0,1,0-4.279,1.313,1.313,0,0,0-2.056-1.632,6.036,6.036,0,0,0,.007,7.546l.683.858a4.472,4.472,0,0,1,0,5.591l-.7.882a1.313,1.313,0,1,0,2.056,1.632l.7-.882A7.086,7.086,0,0,0,137.221,29.75Z" transform="translate(-133.156 -22.485)"/></g><g transform="translate(17.486 23.015)"><path d="M135.451,175.715a1.314,1.314,0,1,0,.385.928A1.323,1.323,0,0,0,135.451,175.715Z" transform="translate(-133.21 -175.33)"/></g><g transform="translate(40.404 34.393)"><path d="M314.91,262a1.313,1.313,0,0,0-1.313,1.313,18.808,18.808,0,0,1-5.422,13.138,1.313,1.313,0,1,0,1.865,1.848,21.452,21.452,0,0,0,6.183-14.986A1.313,1.313,0,0,0,314.91,262Z" transform="translate(-307.795 -262)"/></g><g transform="translate(36.092 51.738)"><path d="M277.431,394.8a1.313,1.313,0,0,0-1.788-.5l-.03.017a1.313,1.313,0,1,0,1.29,2.287l.03-.017A1.313,1.313,0,0,0,277.431,394.8Z" transform="translate(-274.945 -394.136)"/></g></g><path d="M176.423,4135.5h4.728s1.158,7.782-5.4,7.694C175.651,4143.371,176.423,4135.5,176.423,4135.5Z" transform="translate(-121.448 -4100.48)" fill="#FBED1B"/><path d="M26.955,5.433c-9.1.014-18.2.009-20.64-.054l-.655,0-.041-.044C1.169,4.8,0,0,0,0H53.91s-1.169,4.8-5.619,5.333l-.041.044-.655,0c-1.743.045-6.89.06-13.007.06C32.147,5.44,29.55,5.437,26.955,5.433Z" transform="translate(2.122 59.428)" fill="#FBED1B"/></svg>