<svg xmlns="http://www.w3.org/2000/svg" width="94.792" height="78.993" viewBox="0 0 94.792 78.993">
  <g id="tea_herbal" transform="translate(0)">
    <path id="Path_1750" data-name="Path 1750" d="M80,155.16,92.639,167.8l3.16-6.319-1.58-6.319L84.74,152Zm0,0" transform="translate(-64.202 -121.983)" fill="#FBED1B"/>
    <path id="Path_1751" data-name="Path 1751" d="M376,160h7.9a11.059,11.059,0,0,1,0,22.118H376V175.8h7.9a4.74,4.74,0,0,0,0-9.479H376Zm0,0" transform="translate(-301.747 -128.403)" fill="#FBED1B"/>
    <path id="Path_1752" data-name="Path 1752" d="M120,121.278a20.538,20.538,0,0,0,20.538,20.538h15.8a20.538,20.538,0,0,0,20.538-20.538A25.278,25.278,0,0,0,151.6,96h-6.319A25.278,25.278,0,0,0,120,121.278Zm0,0" transform="translate(-96.302 -77.042)" fill="#fff"/>
    <path id="Path_1753" data-name="Path 1753" d="M174.319,108.639H199.6a6.32,6.32,0,0,0,6.319-6.319v-.757A25.149,25.149,0,0,0,190.118,96H183.8a25.149,25.149,0,0,0-15.8,5.563v.757A6.32,6.32,0,0,0,174.319,108.639Zm0,0" transform="translate(-134.823 -77.042)" fill="#FBED1B"/>
    <path id="Path_1754" data-name="Path 1754" d="M240,60.74a4.74,4.74,0,1,1,9.479,0,3.16,3.16,0,0,1-3.16,3.16h-3.16A3.16,3.16,0,0,1,240,60.74Zm0,0" transform="translate(-192.604 -44.941)" fill="#edae00"/>
    <path id="Path_1755" data-name="Path 1755" d="M8,208v9.479a14.219,14.219,0,0,0,28.438,0V208Zm0,0" transform="translate(-6.42 -166.924)" fill="#FBED1B"/>
    <path id="Path_1756" data-name="Path 1756" d="M72,208v9.479a14.219,14.219,0,0,0,28.438,0V208Zm0,0" transform="translate(-57.781 -166.924)" fill="#fff"/>
    <path id="Path_1757" data-name="Path 1757" d="M336,8a9.48,9.48,0,0,1,9.479,9.479v7.9A9.48,9.48,0,0,1,336,15.9Zm0,0" transform="translate(-269.646 -6.42)" fill="#fff"/>
    <path id="Path_1758" data-name="Path 1758" d="M401.379,64a9.48,9.48,0,0,1-9.479,9.479H384A9.48,9.48,0,0,1,393.479,64Zm0,0" transform="translate(-308.167 -51.361)" fill="#fff"/>
    <path id="Path_1761" data-name="Path 1761" d="M20.74,44.538h4.74a1.58,1.58,0,0,1,1.58,1.58V47.7h3.16v-1.58a4.74,4.74,0,0,0-4.74-4.74H20.74a1.58,1.58,0,1,1,0-3.16H34.958a4.74,4.74,0,0,0,0-9.479H31.8a1.58,1.58,0,0,1-1.58-1.58V24h-3.16v3.16A4.74,4.74,0,0,0,31.8,31.9h3.16a1.58,1.58,0,0,1,0,3.16H20.74a4.74,4.74,0,1,0,0,9.479Zm0,0" transform="translate(-12.841 -19.26)"/>
    <path id="Path_1762" data-name="Path 1762" d="M77.413,23.7h6.319A11.071,11.071,0,0,0,94.792,12.639v-1.58H85.312a11.015,11.015,0,0,0-7.9,3.335V11.059A11.071,11.071,0,0,0,66.354,0h-1.58V9.479A11.07,11.07,0,0,0,74.4,20.434l-.015.1h-.127v4.714a26.961,26.961,0,0,0-16.141-7.716,4.679,4.679,0,0,0,.343-1.738,6.319,6.319,0,1,0-12.639,0,4.709,4.709,0,0,0,.341,1.738A26.858,26.858,0,0,0,26.093,30.2l-5.056-1.685a1.566,1.566,0,0,0-1.376.184l-4.74,3.16a1.58,1.58,0,0,0-.24,2.432l5.2,5.207H1.58A1.58,1.58,0,0,0,0,41.076v9.479A15.767,15.767,0,0,0,6.36,63.195H1.58A1.58,1.58,0,0,0,0,64.774v6.319a1.58,1.58,0,0,0,1.58,1.58h1.58v4.74a1.58,1.58,0,0,0,1.58,1.58H90.052a1.58,1.58,0,0,0,1.58-1.58v-4.74h1.58a1.58,1.58,0,0,0,1.58-1.58V64.774a1.58,1.58,0,0,0-1.58-1.58H71.432a22.124,22.124,0,0,0,7.741-7.9h2.98a12.639,12.639,0,1,0,0-25.278H78.045c-.2-.326-.407-.65-.632-.964Zm7.9-9.479h6.161a7.912,7.912,0,0,1-7.741,6.319H77.571A7.912,7.912,0,0,1,85.312,14.219Zm-11.059,3a7.912,7.912,0,0,1-6.319-7.741V3.318a7.912,7.912,0,0,1,6.319,7.741Zm-23.7,3.318H55.3a23.684,23.684,0,0,1,14.219,4.777,4.74,4.74,0,0,1-4.74,4.7H39.5a4.74,4.74,0,0,1-4.74-4.722,23.668,23.668,0,0,1,14.219-4.757Zm1.58-7.9A3.16,3.16,0,0,1,55.3,15.8a1.58,1.58,0,0,1-1.58,1.58h-3.16a1.58,1.58,0,0,1-1.58-1.58A3.16,3.16,0,0,1,52.135,12.639ZM41.076,50.556a12.639,12.639,0,0,1-25.278,0v-7.9H41.076Zm-20.3-18.8,3.792,1.264c-.042.093-.073.193-.113.286-.193.433-.359.877-.528,1.321-.136.357-.282.71-.4,1.073-.158.474-.28.947-.41,1.422-.08.3-.183.583-.252.882L18.277,33.42ZM3.16,50.556v-7.9h9.479v7.9a16.028,16.028,0,0,0,.142,2.054c.029.214.073.419.108.633.079.463.172.92.29,1.368.06.231.128.457.2.684.137.431.291.855.461,1.264.084.2.158.411.256.612a15.75,15.75,0,0,0,.763,1.446c.06.1.11.207.171.3a15.46,15.46,0,0,0,1.153,1.6c.121.148.255.282.382.427.316.357.632.7.986,1.031.176.158.357.316.541.474s.316.294.474.428a12.354,12.354,0,0,1-2.765.313A12.653,12.653,0,0,1,3.16,50.556ZM88.472,75.833H6.319v-3.16H88.472Zm3.16-9.479v3.16H3.16v-3.16Zm-31.6-3.16h-15.8a18.657,18.657,0,0,1-5.371-.79c.17-.158.316-.316.483-.474s.316-.3.474-.458c.327-.343.632-.7.929-1.07.1-.123.207-.24.3-.366a16.268,16.268,0,0,0,1.04-1.564c.068-.117.123-.242.188-.362.237-.432.456-.869.652-1.321.086-.2.158-.4.238-.6.157-.393.289-.79.409-1.2.063-.218.125-.434.181-.654.106-.424.189-.852.258-1.283.033-.2.073-.395.1-.594a15.631,15.631,0,0,0,.119-1.908V39.5H25.79c.015-.082.025-.166.041-.246.046-.211.1-.416.15-.623.111-.46.232-.916.369-1.367q.1-.341.218-.678c.158-.445.316-.884.494-1.321.079-.194.158-.392.238-.584.271-.615.561-1.223.885-1.814a23.7,23.7,0,0,1,3.83-5.172A7.884,7.884,0,0,0,39.5,33.177H64.774a7.882,7.882,0,0,0,7.471-5.452,23.771,23.771,0,0,1,3.539,4.645l.012.021a23.455,23.455,0,0,1,2.417,5.921,23.738,23.738,0,0,1,.779,5.924A19.127,19.127,0,0,1,60.035,63.195ZM81.7,39.5h.451a3.16,3.16,0,0,1,0,6.319h-.069q.069-.82.069-1.58A26.2,26.2,0,0,0,81.7,39.5Zm.451-6.319a9.479,9.479,0,0,1,0,18.958H80.682c.066-.174.117-.353.179-.528.085-.245.17-.488.248-.736.1-.316.182-.633.265-.948.063-.238.13-.474.185-.721.017-.077.042-.158.06-.231h.534a6.319,6.319,0,1,0,0-12.639H80.939c-.03-.1-.069-.2-.1-.3-.079-.248-.166-.491-.251-.737-.109-.306-.219-.611-.338-.914q-.148-.367-.306-.731c-.066-.157-.125-.316-.194-.474Zm0,0"/>
  </g>
</svg>
