<svg xmlns="http://www.w3.org/2000/svg" width="130.928" height="133.005" viewBox="0 0 130.928 133.005"><path d="M131.235,360.313H6.612A2.1,2.1,0,0,1,4.5,358.235v-4.156A2.1,2.1,0,0,1,6.612,352H131.235a2.1,2.1,0,0,1,2.112,2.078v4.156A2.1,2.1,0,0,1,131.235,360.313Zm0,0" transform="translate(-3.461 -260.559)" fill="#ffd740"/><path d="M128.274,358.391H3.651A3.138,3.138,0,0,1,.5,355.274v-4.156A3.138,3.138,0,0,1,3.653,348H128.276a3.139,3.139,0,0,1,3.153,3.117v4.156A3.143,3.143,0,0,1,128.274,358.391ZM3.651,350.078a1.056,1.056,0,0,0-1.073,1.039v4.156a1.058,1.058,0,0,0,1.075,1.039H128.276a1.058,1.058,0,0,0,1.075-1.039v-4.156a1.058,1.058,0,0,0-1.075-1.039Zm0,0" transform="translate(-0.5 -257.598)" fill="#263238"/><path d="M53.539,426.134a1.038,1.038,0,0,1-1.039-1.039V397.039a1.039,1.039,0,1,1,2.078,0v28.056A1.04,1.04,0,0,1,53.539,426.134Zm0,0" transform="translate(-38.992 -293.129)" fill="#263238"/><path d="M21.539,426.134a1.038,1.038,0,0,1-1.039-1.039V397.039a1.039,1.039,0,1,1,2.078,0v28.056A1.04,1.04,0,0,1,21.539,426.134Zm0,0" transform="translate(-15.305 -293.129)" fill="#263238"/><path d="M149.539,476.469a1.04,1.04,0,0,1-1.039-1.039V465.039a1.039,1.039,0,1,1,2.078,0V475.43A1.04,1.04,0,0,1,149.539,476.469Zm0,0" transform="translate(-110.053 -343.465)" fill="#263238"/><path d="M125.539,476.469a1.04,1.04,0,0,1-1.039-1.039V465.039a1.039,1.039,0,0,1,2.078,0V475.43A1.04,1.04,0,0,1,125.539,476.469Zm0,0" transform="translate(-92.288 -343.465)" fill="#263238"/><path d="M477.539,426.134a1.04,1.04,0,0,1-1.039-1.039V397.039a1.039,1.039,0,1,1,2.078,0v28.056A1.04,1.04,0,0,1,477.539,426.134Zm0,0" transform="translate(-352.847 -293.129)" fill="#263238"/><path d="M445.539,426.134a1.04,1.04,0,0,1-1.039-1.039V397.039a1.039,1.039,0,1,1,2.078,0v28.056A1.04,1.04,0,0,1,445.539,426.134Zm0,0" transform="translate(-329.16 -293.129)" fill="#263238"/><path d="M115.36,428.313H94.578a2.08,2.08,0,0,1-2.078-2.078v-4.156A2.08,2.08,0,0,1,94.578,420H115.36a2.08,2.08,0,0,1,2.078,2.078v4.156A2.08,2.08,0,0,1,115.36,428.313Zm0,0" transform="translate(-68.601 -310.895)"/><path d="M112.4,426.391H91.617a3.121,3.121,0,0,1-3.117-3.117v-4.156A3.121,3.121,0,0,1,91.617,416H112.4a3.121,3.121,0,0,1,3.117,3.117v4.156A3.121,3.121,0,0,1,112.4,426.391Zm-20.782-8.313a1.04,1.04,0,0,0-1.039,1.039v4.156a1.04,1.04,0,0,0,1.039,1.039H112.4a1.04,1.04,0,0,0,1.039-1.039v-4.156a1.04,1.04,0,0,0-1.039-1.039Zm0,0" transform="translate(-65.64 -307.934)" fill="#263238"/><path d="M373.539,476.469a1.04,1.04,0,0,1-1.039-1.039V465.039a1.039,1.039,0,1,1,2.078,0V475.43A1.04,1.04,0,0,1,373.539,476.469Zm0,0" transform="translate(-275.864 -343.465)" fill="#263238"/><path d="M349.539,476.469a1.04,1.04,0,0,1-1.039-1.039V465.039a1.039,1.039,0,0,1,2.078,0V475.43A1.04,1.04,0,0,1,349.539,476.469Zm0,0" transform="translate(-258.098 -343.465)" fill="#263238"/><path d="M339.36,428.313H318.578a2.08,2.08,0,0,1-2.078-2.078v-4.156A2.08,2.08,0,0,1,318.578,420H339.36a2.08,2.08,0,0,1,2.078,2.078v4.156A2.08,2.08,0,0,1,339.36,428.313Zm0,0" transform="translate(-234.411 -310.895)"/><path d="M336.4,426.391H315.617a3.121,3.121,0,0,1-3.117-3.117v-4.156A3.121,3.121,0,0,1,315.617,416H336.4a3.121,3.121,0,0,1,3.117,3.117v4.156A3.121,3.121,0,0,1,336.4,426.391Zm-20.782-8.313a1.04,1.04,0,0,0-1.039,1.039v4.156a1.04,1.04,0,0,0,1.039,1.039H336.4a1.04,1.04,0,0,0,1.039-1.039v-4.156a1.04,1.04,0,0,0-1.039-1.039Zm0,0" transform="translate(-231.45 -307.934)" fill="#263238"/><path d="M113.595,110.962H84.5L99.047,94.336Zm0,0" transform="translate(-62.679 -69.83)" fill="#FBED1B"/><path d="M110.633,109.085H81.539a1.039,1.039,0,0,1-.781-1.723L95.3,90.736a1.071,1.071,0,0,1,1.565,0l14.547,16.626a1.039,1.039,0,0,1-.783,1.723Zm-26.8-2.078h24.514L96.086,93Zm0,0" transform="translate(-59.717 -66.914)" fill="#263238"/><path d="M137.539,47.012a1.04,1.04,0,0,1-1.039-1.039V30.039a1.039,1.039,0,1,1,2.078,0V45.973A1.04,1.04,0,0,1,137.539,47.012Zm0,0" transform="translate(-101.171 -21.467)" fill="#37474f"/><path d="M125.7,160.571a5.2,5.2,0,0,1-5.2-5.2,1.04,1.04,0,0,1,1.039-1.039h8.313a1.04,1.04,0,0,1,1.039,1.039A5.2,5.2,0,0,1,125.7,160.571Zm-2.941-4.156a3.12,3.12,0,0,0,5.881,0Zm0,0" transform="translate(-89.327 -114.243)" fill="#37474f"/><path d="M337.595,110.962H308.5l14.547-16.626Zm0,0" transform="translate(-228.489 -69.83)" fill="#FBED1B"/><path d="M334.633,109.085H305.539a1.039,1.039,0,0,1-.781-1.723L319.3,90.736a1.071,1.071,0,0,1,1.565,0l14.547,16.626a1.039,1.039,0,0,1-.783,1.723Zm-26.8-2.078h24.514L320.086,93Zm0,0" transform="translate(-225.528 -66.914)" fill="#263238"/><path d="M361.539,47.012a1.04,1.04,0,0,1-1.039-1.039V30.039a1.039,1.039,0,1,1,2.078,0V45.973A1.04,1.04,0,0,1,361.539,47.012Zm0,0" transform="translate(-266.981 -21.467)" fill="#37474f"/><g transform="translate(0)"><path d="M349.7,160.571a5.2,5.2,0,0,1-5.2-5.2,1.04,1.04,0,0,1,1.039-1.039h8.313a1.04,1.04,0,0,1,1.039,1.039A5.2,5.2,0,0,1,349.7,160.571Zm-2.941-4.156a3.12,3.12,0,0,0,5.881,0Zm0,0" transform="translate(-255.137 -114.243)" fill="#263238"/><path d="M324.868,259.017H291.617A3.121,3.121,0,0,1,288.5,255.9V235.117A3.121,3.121,0,0,1,291.617,232h33.251a3.121,3.121,0,0,1,3.117,3.117V255.9A3.121,3.121,0,0,1,324.868,259.017Zm-33.251-24.938a1.04,1.04,0,0,0-1.039,1.039V255.9a1.04,1.04,0,0,0,1.039,1.039h33.251a1.04,1.04,0,0,0,1.039-1.039V235.117a1.04,1.04,0,0,0-1.039-1.039Zm0,0" transform="translate(-213.685 -171.732)" fill="#263238"/><path d="M317.181,335.274H275.617a3.121,3.121,0,0,1-3.117-3.117v-1.039A3.121,3.121,0,0,1,275.617,328h41.564a3.121,3.121,0,0,1,3.117,3.117v1.039A3.121,3.121,0,0,1,317.181,335.274Zm-41.564-5.2a1.04,1.04,0,0,0-1.039,1.039v1.039a1.04,1.04,0,0,0,1.039,1.039h41.564a1.04,1.04,0,0,0,1.039-1.039v-1.039a1.04,1.04,0,0,0-1.039-1.039Zm0,0" transform="translate(-201.841 -242.794)" fill="#263238"/><path d="M405.695,254.24a1.043,1.043,0,0,1-.736-.3L400.8,249.78a1.039,1.039,0,1,1,1.469-1.469l4.156,4.156a1.038,1.038,0,0,1-.734,1.773Zm0,0" transform="translate(-296.589 -183.581)" fill="#263238"/><path d="M387.929,260.474a1.043,1.043,0,0,1-.736-.3L376.8,249.78a1.039,1.039,0,1,1,1.469-1.469L388.663,258.7a1.038,1.038,0,0,1-.734,1.773Zm0,0" transform="translate(-278.824 -183.581)" fill="#263238"/><path d="M100.868,259.017H67.617A3.121,3.121,0,0,1,64.5,255.9V235.117A3.121,3.121,0,0,1,67.617,232h33.251a3.121,3.121,0,0,1,3.117,3.117V255.9A3.121,3.121,0,0,1,100.868,259.017ZM67.617,234.078a1.04,1.04,0,0,0-1.039,1.039V255.9a1.04,1.04,0,0,0,1.039,1.039h33.251a1.04,1.04,0,0,0,1.039-1.039V235.117a1.04,1.04,0,0,0-1.039-1.039Zm0,0" transform="translate(-47.874 -171.732)" fill="#263238"/><path d="M93.181,335.274H51.617a3.121,3.121,0,0,1-3.117-3.117v-1.039A3.121,3.121,0,0,1,51.617,328H93.181a3.121,3.121,0,0,1,3.117,3.117v1.039A3.121,3.121,0,0,1,93.181,335.274Zm-41.564-5.2a1.04,1.04,0,0,0-1.039,1.039v1.039a1.04,1.04,0,0,0,1.039,1.039H93.181a1.04,1.04,0,0,0,1.039-1.039v-1.039a1.04,1.04,0,0,0-1.039-1.039Zm0,0" transform="translate(-36.031 -242.794)" fill="#263238"/><path d="M181.695,254.24a1.043,1.043,0,0,1-.736-.3L176.8,249.78a1.039,1.039,0,1,1,1.469-1.469l4.156,4.156a1.038,1.038,0,0,1-.734,1.773Zm0,0" transform="translate(-130.779 -183.581)" fill="#263238"/><path d="M163.929,260.474a1.043,1.043,0,0,1-.736-.3L152.8,249.78a1.039,1.039,0,1,1,1.469-1.469L164.663,258.7a1.038,1.038,0,0,1-.734,1.773Zm0,0" transform="translate(-113.014 -183.581)" fill="#263238"/><path d="M128.309,8.313H3.617A3.119,3.119,0,0,1,.5,5.2V3.117A3.121,3.121,0,0,1,3.617,0H128.309a3.121,3.121,0,0,1,3.117,3.117V5.2A3.121,3.121,0,0,1,128.309,8.313ZM3.617,2.078A1.04,1.04,0,0,0,2.578,3.117V5.2A1.04,1.04,0,0,0,3.617,6.235H128.309A1.04,1.04,0,0,0,129.348,5.2V3.117a1.04,1.04,0,0,0-1.039-1.039Zm0,0" transform="translate(-0.5)" fill="#263238"/><path d="M437.539,64.727a1.04,1.04,0,0,1-1.039-1.039V55.375a1.039,1.039,0,0,1,2.078,0v8.313A1.04,1.04,0,0,1,437.539,64.727Zm0,0" transform="translate(-323.238 -40.221)" fill="#263238"/><path d="M429.852,72.414h-8.313a1.039,1.039,0,0,1,0-2.078h8.313a1.039,1.039,0,0,1,0,2.078Zm0,0" transform="translate(-311.395 -52.064)" fill="#263238"/><path d="M481.539,112.727a1.04,1.04,0,0,1-1.039-1.039v-8.313a1.039,1.039,0,1,1,2.078,0v8.313A1.04,1.04,0,0,1,481.539,112.727Zm0,0" transform="translate(-355.808 -75.752)" fill="#263238"/><path d="M473.852,120.414h-8.313a1.039,1.039,0,0,1,0-2.078h8.313a1.039,1.039,0,0,1,0,2.078Zm0,0" transform="translate(-343.965 -87.595)" fill="#263238"/></g></svg>