<svg xmlns="http://www.w3.org/2000/svg" width="41.26" height="41.26" viewBox="0 0 41.26 41.26"><g transform="translate(-142.247 -711.125)"><g transform="translate(142.247 711.125)"><path d="M42.26,12.979V2.331H30.838A1.944,1.944,0,0,0,29,1h-.193a1.956,1.956,0,0,0-1.941,1.8l-1.056,13.72-3.465-2.31a7.29,7.29,0,0,0-2.173-.978,5.324,5.324,0,1,0-6.77-.306,6,6,0,0,1-2.344-.833L4.385,7.984A2.221,2.221,0,0,0,1,9.876v.26A2.217,2.217,0,0,0,2.014,12l8.779,5.68a3.314,3.314,0,0,1,1.52,2.794v10.53A22.246,22.246,0,0,0,1.773,41.223L1.254,42.26H42.006l-.518-1.037A22.325,22.325,0,0,0,28.858,30.167l.439-5.7.26.16a2.222,2.222,0,0,0,3.386-1.892v-.274a2.218,2.218,0,0,0-.989-1.848l-2.245-1.5.472-6.139Zm-1.331-1.331H30.283L30.9,3.662H40.929ZM28.192,2.9a.62.62,0,0,1,.615-.568H29a.626.626,0,0,1,.614.663L27.047,36.368a.62.62,0,0,1-.615.568h-.193a.626.626,0,0,1-.614-.663Zm-3.357,26.29a22,22,0,0,0-3.206-.232V19.749l3.753,2.31ZM17.618,18.8l-.646.97-.646-.97.421-4.485H17.2ZM12.979,8.986a3.993,3.993,0,1,1,3.993,3.993A4,4,0,0,1,12.979,8.986Zm-1.462,7.578L2.738,10.884a.89.89,0,0,1-.407-.749v-.26a.891.891,0,0,1,1.357-.759l6.672,4.106A7.316,7.316,0,0,0,14.2,14.31h1.212l-.453,4.831,2.016,3.023,2.016-3.023-.451-4.813a5.954,5.954,0,0,1,3.071.988l4.086,2.724L25.5,20.567,21.818,18.3H20.3V36.966a1.316,1.316,0,0,1-1.36,1.3,1.3,1.3,0,0,1-1.3-1.3h0V24.957H16.306V36.965a1.317,1.317,0,0,1-1.361,1.3,1.3,1.3,0,0,1-1.3-1.3V20.475a4.641,4.641,0,0,0-2.128-3.912ZM8.49,34.959a1.994,1.994,0,0,1-2.838,2.792A20.954,20.954,0,0,1,8.49,34.959Zm29.358,3.076a1.965,1.965,0,0,1-.912.232,2,2,0,0,1-2-2,1.954,1.954,0,0,1,.258-.957A21.034,21.034,0,0,1,37.849,38.035Zm-3.7-3.566a3.279,3.279,0,0,0-.542,1.8A3.331,3.331,0,0,0,36.936,39.6a3.292,3.292,0,0,0,1.726-.494,20.606,20.606,0,0,1,1.162,1.825H3.435a20.845,20.845,0,0,1,1.4-2.131,3.321,3.321,0,0,0,4.718-4.642,20.785,20.785,0,0,1,2.764-1.662v4.471A2.648,2.648,0,0,0,15.005,39.6a2.616,2.616,0,0,0,1.969-.9A2.688,2.688,0,0,0,19,39.6a2.635,2.635,0,0,0,2.632-2.632V30.289a21.066,21.066,0,0,1,3.1.232L24.3,36.169c0,.051-.006.1-.006.15a1.949,1.949,0,0,0,1.947,1.947h.193a1.956,1.956,0,0,0,1.941-1.8l.379-4.932a20.867,20.867,0,0,1,5.4,2.931ZM31.216,21.722a.889.889,0,0,1,.4.741v.274a.891.891,0,0,1-1.357.759l-.843-.519.18-2.337Z" transform="translate(-1 -1)"/><path d="M57,7h1.331V8.331H57Z" transform="translate(-19.733 -3.007)"/><path d="M53,7h1.331V8.331H53Z" transform="translate(-18.395 -3.007)"/><path d="M49,7h1.331V8.331H49Z" transform="translate(-17.057 -3.007)"/><path d="M46,52h1.331v1.331H46Z" transform="translate(-16.053 -18.06)"/><path d="M43,57h1.331v1.331H43Z" transform="translate(-15.05 -19.733)"/></g><path d="M2138.332,2621h10.149v8.152H2137.5Z" transform="translate(-1966.304 -1907.214)" fill="#FBED1B"/></g></svg>